<svg xmlns="http://www.w3.org/2000/svg" width="10.32" height="10.32" viewBox="0 0 10.32 10.32"><defs><style>.a{fill:#cddbe5;}</style></defs><path class="a" d="M5.16,0a5.16,5.16,0,1,0,5.16,5.16A5.16,5.16,0,0,0,5.16,0ZM6.234,8q-.4.157-.636.239a1.677,1.677,0,0,1-.551.083,1.1,1.1,0,0,1-.75-.235.76.76,0,0,1-.267-.6A2.169,2.169,0,0,1,4.05,7.2c.014-.1.035-.208.064-.332l.332-1.174c.029-.113.055-.22.075-.319a1.416,1.416,0,0,0,.03-.277.426.426,0,0,0-.093-.313A.526.526,0,0,0,4.1,4.7a.932.932,0,0,0-.264.039c-.09.028-.167.052-.231.077L3.7,4.451q.326-.133.625-.228a1.846,1.846,0,0,1,.564-.1,1.078,1.078,0,0,1,.739.232.769.769,0,0,1,.259.6q0,.077-.018.27a1.8,1.8,0,0,1-.066.354L5.468,6.755c-.027.094-.051.2-.073.322a1.7,1.7,0,0,0-.032.273.393.393,0,0,0,.1.318.584.584,0,0,0,.361.085A1.048,1.048,0,0,0,6.1,7.71a1.555,1.555,0,0,0,.221-.074ZM6.176,3.245a.789.789,0,0,1-.557.215.8.8,0,0,1-.559-.215.686.686,0,0,1-.233-.521A.693.693,0,0,1,5.059,2.2a.792.792,0,0,1,.559-.217.783.783,0,0,1,.557.217.7.7,0,0,1,0,1.044Z"/></svg>